<svg width="32" height="32" viewBox="0 0 32 32" fill="none" xmlns="http://www.w3.org/2000/svg">
  <!-- Background Circle -->
  <circle cx="16" cy="16" r="16" fill="url(#gradient)"/>
  
  <!-- Chat Bubble Icon -->
  <path d="M8 11C8 9.34315 9.34315 8 11 8H21C22.6569 8 24 9.34315 24 11V17C24 18.6569 22.6569 20 21 20H14L9 24V20C8.44772 20 8 19.5523 8 19V11Z" fill="white" opacity="0.9"/>
  
  <!-- Translation Symbol -->
  <path d="M12 13H16M14 13V16M18 13L20 16M19 13L21 16" stroke="url(#gradient2)" stroke-width="1.5" stroke-linecap="round" stroke-linejoin="round"/>
  
  <!-- Gradients -->
  <defs>
    <linearGradient id="gradient" x1="0" y1="0" x2="32" y2="32" gradientUnits="userSpaceOnUse">
      <stop offset="0%" stop-color="#3B82F6"/>
      <stop offset="100%" stop-color="#8B5CF6"/>
    </linearGradient>
    <linearGradient id="gradient2" x1="12" y1="13" x2="21" y2="16" gradientUnits="userSpaceOnUse">
      <stop offset="0%" stop-color="#3B82F6"/>
      <stop offset="100%" stop-color="#8B5CF6"/>
    </linearGradient>
  </defs>
</svg>
